<?xml version="1.0" encoding="UTF-8"?>
<svg version="1.1" xmlns="http://www.w3.org/2000/svg" width="8533" height="8533">
<path d="M0 0 C21.67706455 0.00251048 43.35412827 0.00286177 65.03119293 0.00173584 C66.57436135 0.00165835 68.11752976 0.0015812 69.66069817 0.00150437 C75.87156543 0.00119354 82.08243268 0.00087484 88.29329993 0.0005446 C105.60348055 -0.00036853 122.91366118 -0.00094191 140.22384182 -0.00124153 C141.00932711 -0.00125518 141.79481239 -0.00126883 142.60410026 -0.00128288 C167.31082016 -0.00168696 192.01753973 -0.00059197 216.72425953 0.00160805 C217.51577556 0.00167829 218.30729159 0.00174854 219.12279295 0.00182092 C231.95030776 0.0029638 244.77782256 0.0041842 257.60533736 0.00541109 C308.77894127 0.01030024 359.95254256 0.01000172 411.12614647 0.00518051 C424.1389025 0.00395832 437.15165852 0.00274689 450.16441456 0.00160805 C450.96676446 0.0015376 451.76911436 0.00146715 452.59577789 0.00139457 C477.4364904 -0.00077115 502.2772027 -0.00167427 527.11791531 -0.00124153 C528.29189925 -0.00122116 528.29189925 -0.00122116 529.48960003 -0.00120037 C546.6876349 -0.00088757 563.88566974 -0.00025325 581.08370459 0.00066897 C587.2365486 0.00099778 593.38939262 0.0013109 599.54223664 0.00161968 C601.07120502 0.00169707 602.6001734 0.0017758 604.12914178 0.00185588 C628.06671962 0.00310645 652.0042963 0.00174087 675.94187399 -0.00099427 C700.70444449 -0.00379302 725.46701238 -0.00265645 750.22958251 0.00253703 C752.92647794 0.00308894 755.62337336 0.00362569 758.32026878 0.00415054 C758.98172598 0.00428075 759.64318318 0.00441095 760.32468453 0.00454511 C769.87185433 0.00634495 779.41902095 0.00548334 788.96619049 0.00288788 C848.49566318 -0.01231133 908.01811567 0.21758058 967.54477558 0.77473739 C1017.81291731 1.24108009 1068.07923898 1.29038717 1118.349291 1.2659227 C1128.55860523 1.26110313 1138.7679062 1.2611866 1148.97722069 1.2659227 C1222.47933138 1.37187358 1222.47933138 1.37187358 1295.9704372 0.28589073 C1307.41060424 0.0347949 1318.85363421 0.09134265 1330.2958242 0.1355516 C1330.1491428 2.0219447 1329.99939252 3.90809928 1329.84839073 5.79415146 C1329.76533589 6.84452905 1329.68228106 7.89490665 1329.5967094 8.97711387 C1329.13949386 13.77657502 1328.30963077 18.4836138 1327.43254295 23.2214891 C1327.24489876 24.2555841 1327.05725456 25.28967911 1326.86392418 26.35511032 C1326.24525635 29.74182762 1325.6156384 33.12635691 1324.9833242 36.5105516 C1324.76440514 37.68904678 1324.54548607 38.86754196 1324.31993309 40.08174911 C1318.15025986 73.17017867 1310.69000706 105.95888791 1302.89372459 138.69707504 C1295.27914407 170.67837649 1288.36029122 202.78825643 1281.73773399 234.98726669 C1281.30376766 237.09693556 1280.86909027 239.20645707 1280.43437401 241.31597152 C1264.97665598 316.40258979 1251.89510952 391.96453207 1238.42016349 467.42640284 C1223.4449163 551.28797585 1208.3737804 635.13073578 1167.2958242 816.1355516 C1153.1972417 816.97776949 1139.11268445 817.42696335 1124.99211327 817.68755356 C1123.3504452 817.71892565 1123.3504452 817.71892565 1121.67561213 817.75093153 C1096.72587436 818.22028803 1071.77876469 818.29931135 1046.82526127 818.30259386 C1041.76791581 818.30387057 1036.7105747 818.30838678 1031.65323106 818.31268612 C1015.91431575 818.32567904 1000.1754139 818.32657047 984.43649461 818.32386571 C979.4505581 818.32307147 974.46462207 818.32310835 969.47868553 818.32358185 C887.74687532 818.3308699 806.02399994 818.04661201 724.2958242 817.1980516 C722.70905656 817.18163848 722.70905656 817.18163848 721.090233 817.16489378 C666.82400101 816.60267559 612.55956779 815.8989781 558.2958242 815.1355516 C558.85291795 809.63666719 559.56818455 804.22420925 560.58903709 798.78813949 C560.71693847 798.1024621 560.84483984 797.4167847 560.97661701 796.71032921 C561.4038367 794.42563594 561.83602221 792.14191492 562.26848045 789.85820785 C562.58286439 788.18610634 562.89706769 786.51397085 563.21110741 784.84180465 C564.07366806 780.25622081 564.94146393 775.67164204 565.81073586 771.0873262 C566.35922712 768.19328748 566.90639278 765.29900079 567.45326439 762.40465561 C578.06911523 706.25101467 589.20078477 650.19606266 600.2958242 594.1355516 C599.2229006 594.13831698 599.2229006 594.13831698 598.12830177 594.14113823 C573.6008362 594.20310213 549.07335778 594.23938476 524.5458242 594.2605516 C523.56832191 594.26142021 522.59081962 594.26228882 521.58369604 594.26318374 C436.45418322 594.33662787 351.33509899 593.68930404 266.20997838 592.88257066 C262.46607301 592.84715599 258.72216555 592.81197304 254.97825733 592.77686134 C252.52958305 592.75386512 250.08090885 592.73086066 247.63223473 592.70784775 C245.83879014 592.69100309 245.83879014 592.69100309 244.00911436 592.67381814 C237.18183328 592.6093794 230.35458556 592.54226826 223.52735308 592.47288171 C201.18915014 592.24713512 178.8530542 592.09585213 156.51359764 592.09893051 C154.98347666 592.09906647 154.98347666 592.09906647 153.42244414 592.09920517 C134.29654741 592.10523454 115.17189953 592.22426543 96.04731956 592.44853988 C92.42189934 592.49086272 88.79647269 592.53248995 85.17103783 592.57353988 C59.89274704 592.86446287 34.62589413 593.33945921 9.3583242 594.1355516 C8.68475254 594.15657692 8.01118088 594.17760223 7.31719795 594.19926468 C2.88405909 594.33810876 -1.54878398 594.4844086 -5.98151955 594.6355516 C-7.04438179 594.67097061 -8.10724403 594.70638962 -9.20231422 594.74288193 C-17.71378839 595.04887159 -26.20639479 595.57555428 -34.7041758 596.1355516 C-50.22262898 669.80199723 -65.6621997 743.4845027 -110.7041758 962.1355516 C-110.96686508 963.42297508 -111.22955437 964.71039856 -111.50020393 966.03683487 C-124.98944845 1032.15186012 -138.38833653 1098.28530955 -151.6416758 1164.4480516 C-151.782884 1165.15294818 -151.92409221 1165.85784475 -152.06957945 1166.58410183 C-160.07854781 1206.56858559 -167.92470988 1246.58144448 -175.5791758 1286.6355516 C-184.46256266 1333.11159268 -193.52320461 1379.5175472 -204.1416758 1425.6355516 C-204.38184425 1426.67884628 -204.62201271 1427.72214096 -204.869459 1428.79705063 C-208.22510761 1443.31200588 -211.87386934 1457.73882585 -215.7041758 1472.1355516 C-219.96101574 1473.43182036 -222.35751664 1472.50587608 -226.5713633 1471.02227035 C-227.26041252 1470.78193069 -227.94946175 1470.54159103 -228.65939125 1470.29396835 C-230.97053542 1469.48260974 -233.2749587 1468.65386485 -235.5791758 1467.8230516 C-236.38903938 1467.53445267 -237.19890297 1467.24585373 -238.03330788 1466.94850937 C-271.21311087 1455.12067864 -303.81214859 1441.74302395 -336.41071877 1428.41728988 C-359.07720893 1419.15202434 -381.80574636 1410.04773878 -404.55613502 1400.99069992 C-406.84142607 1400.08091142 -409.1266835 1399.17103855 -411.41193947 1398.26116195 C-434.66792218 1389.00207126 -457.92671392 1379.7500453 -481.18632301 1370.50006881 C-500.84182823 1362.68337656 -520.49639047 1354.86431525 -540.150709 1347.04463974 C-544.95274478 1345.13410273 -549.75480433 1343.22362549 -554.55687126 1341.31316677 C-574.42118769 1333.41031576 -594.28519991 1325.50670093 -614.14858421 1317.60150734 C-617.24649236 1316.36863158 -620.34442622 1315.13582045 -623.44236549 1313.90302292 C-632.6806269 1310.22665822 -641.91871589 1306.54986352 -651.15587601 1302.87073246 C-656.20829661 1300.85839932 -661.2608777 1298.84646941 -666.3135508 1296.83477035 C-667.31066456 1296.43776869 -668.30777832 1296.04076702 -669.33510765 1295.631735 C-683.95613985 1289.81131623 -698.58599312 1284.01348199 -713.2207869 1278.22776047 C-719.42979304 1275.77227124 -725.63741094 1273.31327424 -731.84499439 1270.85419098 C-737.72840948 1268.52406064 -743.61418624 1266.2000294 -749.50178894 1263.8805019 C-753.09720798 1262.46240491 -756.69037488 1261.03867302 -760.28291878 1259.61331001 C-761.94865629 1258.95381021 -763.6153565 1258.29673629 -765.28305611 1257.64221397 C-767.54715621 1256.75329789 -769.80777737 1255.85606617 -772.06770119 1254.95659652 C-772.73325681 1254.69768316 -773.39881243 1254.4387698 -774.0845364 1254.17201057 C-778.5900827 1252.3637378 -778.5900827 1252.3637378 -779.7041758 1250.1355516 C-779.50547966 1248.36606041 -779.50547966 1248.36606041 -779.04115089 1246.1862413 C-778.78156168 1244.943076 -778.78156168 1244.943076 -778.51672825 1243.67479625 C-778.21941225 1242.30306302 -778.21941225 1242.30306302 -777.91608986 1240.90361801 C-777.61031816 1239.45386503 -777.61031816 1239.45386503 -777.29836925 1237.9748241 C-776.61185957 1234.7275401 -775.91574063 1231.48238907 -775.2198008 1228.2371141 C-774.73206961 1225.93824475 -774.24499724 1223.63923554 -773.75854286 1221.34009567 C-772.71299773 1216.40400907 -771.66346945 1211.46879268 -770.61088356 1206.53420273 C-768.94052556 1198.70181722 -767.28008034 1190.8673532 -765.62238869 1183.03228012 C-765.48396856 1182.37809825 -765.34554843 1181.72391638 -765.20293375 1181.04991081 C-764.64220344 1178.39981695 -764.08150447 1175.74971646 -763.52092018 1173.0995917 C-762.67362575 1169.09416161 -761.82570264 1165.08886526 -760.97727695 1161.08367464 C-755.966256 1137.42699875 -751.02261902 1113.75689855 -746.1416758 1090.0730516 C-745.95197842 1089.15268112 -745.76228104 1088.23231064 -745.56683525 1087.28405014 C-743.00705919 1074.8616912 -740.45582165 1062.43758851 -737.90900978 1050.01256576 C-737.10375708 1046.08402164 -736.29791918 1042.15559831 -735.49152931 1038.22728744 C-715.52746165 940.96948249 -696.0702413 843.607345 -663.7666758 680.5105516 C-644.71858476 583.35750503 -625.51078436 486.23122888 -591.65782341 319.65085426 C-590.07493963 311.94414299 -588.49530509 304.23677008 -586.91706642 296.52910629 C-570.636736 217.02631562 -570.636736 217.02631562 -562.88776955 180.1355516 C-562.59951774 178.76313812 -562.59951774 178.76313812 -562.30544266 177.36299911 C-560.61343569 169.30849174 -558.9199153 161.25430301 -557.22459206 153.20049301 C-553.16422873 133.90483632 -549.16696743 114.59870337 -545.3135508 95.2605516 C-545.13378574 94.35879888 -544.95402069 93.45704616 -544.76880821 92.5279676 C-543.04985161 83.90077666 -541.33767552 75.27229986 -539.64366516 66.64017406 C-536.41030521 50.17557584 -533.03146044 33.75835454 -529.3057383 17.39727035 C-529.04356073 16.2399739 -529.04356073 16.2399739 -528.77608665 15.05929771 C-528.2861666 12.90353443 -527.79064191 10.74915756 -527.2925547 8.5952684 C-527.00957527 7.36849884 -526.72659584 6.14172928 -526.43504127 4.87778488 C-525.7041758 2.1355516 -525.7041758 2.1355516 -524.7041758 1.1355516 C-521.68182857 1.02520679 -518.68188126 0.98116304 -515.65866688 0.97822693 C-514.69323001 0.97338267 -513.72779315 0.96853841 -512.73310062 0.96354736 C-509.45563781 0.94836422 -506.1781956 0.9403922 -502.90070805 0.93233696 C-500.54465003 0.92296638 -498.18859367 0.91317104 -495.83253904 0.90298418 C-490.0140741 0.87903119 -484.19560429 0.85983081 -478.37711632 0.84269531 C-471.43649306 0.82204618 -464.49589306 0.79594911 -457.55528864 0.76982599 C-443.17555 0.71598554 -428.79579276 0.66958564 -414.4160208 0.62567313 C-404.00113634 0.59385263 -393.58625813 0.5605011 -383.17138261 0.52587896 C-306.40963312 0.27088211 -229.64787667 0.07991263 0 0 Z " fill="#FFFFFF" transform="translate(4127.704175796345,2956.8644483969256)"/>
<path d="M0 0 C3.38702299 0.60089026 6.43153987 1.44759625 9.62353516 2.72387695 C10.5216391 3.08046387 11.41974304 3.43705078 12.34506226 3.80444336 C13.31658234 4.19510986 14.28810242 4.58577637 15.2890625 4.98828125 C16.83468369 5.60364746 16.83468369 5.60364746 18.41152954 6.23144531 C20.64539939 7.121278 22.87851523 8.0130054 25.11096191 8.90640259 C31.12000418 11.31084402 37.1347173 13.7010386 43.1484375 16.09375 C44.39763498 16.5912243 45.64682115 17.08872704 46.89599609 17.58625793 C59.33071282 22.53738363 71.78751618 27.43174267 84.25 32.3125 C85.83941406 32.93517761 85.83941406 32.93517761 87.4609375 33.57043457 C94.63972832 36.38258361 101.81964866 39.19183829 109 42 C110.80566424 42.70637976 112.61132831 43.41275995 114.41699219 44.11914062 C135.47565966 52.35586047 156.55230476 60.54573514 177.63702393 68.71551514 C196.77109103 76.12975607 215.89067985 83.5805641 235.00390625 91.04833984 C242.64347309 94.03299026 250.28446912 97.01397852 257.92532349 99.99533081 C260.50357135 101.00139358 263.08175247 102.00762718 265.65991211 103.01391602 C274.01337955 106.27430417 282.36738456 109.53330064 290.72265625 112.7890625 C300.18449087 116.47641735 309.64403436 120.16961587 319.10192871 123.86706543 C321.0742884 124.63811426 323.04670261 125.4090236 325.01916504 126.17980957 C391.10181958 152.00554267 456.99589891 178.32052965 522.53572083 205.49606323 C528.0996224 207.80214361 533.66750159 210.09820116 539.23963928 212.38430786 C542.63618582 213.77874236 546.03057161 215.1783813 549.42453003 216.57910156 C551.00602126 217.23038111 552.58847042 217.87933978 554.17190552 218.52587891 C556.33203129 219.40826404 558.48862268 220.29877737 560.64453125 221.19140625 C562.45981323 221.93692749 562.45981323 221.93692749 564.31176758 222.69750977 C567 224 567 224 568 226 C567.64437575 228.15641905 567.19285456 230.29714323 566.70263672 232.42700195 C566.55071837 233.09644301 566.39880003 233.76588408 566.2422781 234.45561123 C565.90654434 235.93115089 565.56761369 237.40596574 565.22597694 238.88014984 C564.66816566 241.28801679 564.11881336 243.69767969 563.57157898 246.10797119 C562.76978936 249.63685046 561.96487 253.16499467 561.15774536 256.69265747 C558.9395205 266.39854252 556.75729151 276.11253236 554.58203125 285.828125 C554.35333532 286.84951128 554.1246394 287.87089756 553.88901329 288.92323494 C548.56005008 312.75695308 543.51759769 336.64857696 538.5625 360.5625 C538.34424812 361.61569176 538.12599625 362.66888351 537.90113068 363.75399017 C527.9216843 411.94142192 518.27565567 460.19533403 508.70132446 508.4646225 C507.72716782 513.37534738 506.75254187 518.28597909 505.77792835 523.19661331 C503.15558372 536.40944673 500.53411176 549.6224531 497.91306782 562.83554459 C496.1681675 571.63185602 494.42313352 580.42814092 492.67791665 589.22438955 C492.41034268 590.57301724 492.14277051 591.92164528 491.87520015 593.27027369 C490.42137691 600.59794022 488.9674335 607.92558288 487.51322937 615.25317383 C485.12690874 627.27795159 482.74150309 639.30290749 480.35986328 651.32861328 C461.59293719 746.07143155 441.74884565 840.58717609 421.0857563 938.61965847 C396.2977885 1056.2213075 371.68117867 1173.86215585 320.63671875 1439.46484375 C320.51263075 1440.1491276 320.38854275 1440.83341145 320.2606945 1441.53843117 C319.05467112 1448.19212651 317.85622926 1454.8470622 316.67456055 1461.50512695 C316.49363358 1462.51720718 316.3127066 1463.52928741 316.126297 1464.57203674 C315.79850555 1466.40691238 315.47386286 1468.24235474 315.15312195 1470.07847595 C314.11242875 1475.88757125 314.11242875 1475.88757125 313 1477 C311.4854035 1477.0976075 309.96624334 1477.12509457 308.44850496 1477.12514383 C306.95924816 1477.12883159 306.95924816 1477.12883159 305.43990536 1477.13259384 C304.33299811 1477.13020309 303.22609086 1477.12781235 302.08564097 1477.12534916 C300.91572429 1477.12675148 299.74580761 1477.1281538 298.54043892 1477.12959861 C295.25819726 1477.13250261 291.97601207 1477.13086457 288.69377447 1477.12740866 C285.12251882 1477.12474178 281.55126763 1477.12785248 277.98001245 1477.13024551 C271.6844798 1477.1336528 265.3889558 1477.13329749 259.09342296 1477.13056196 C249.66660793 1477.12648433 240.23979996 1477.12813831 230.81298478 1477.1309446 C214.74569564 1477.13555705 198.67840965 1477.13538851 182.61112022 1477.13266373 C166.31329916 1477.1299167 150.01548018 1477.12932875 133.717659 1477.13140106 C132.68991155 1477.13153023 131.66216411 1477.13165941 130.60327281 1477.13179249 C126.41741891 1477.13232576 122.23156501 1477.13287447 118.04571112 1477.13344277 C78.98279569 1477.13874235 39.91988165 1477.13908566 0.85696602 1477.13629532 C-36.89165707 1477.13360025 -74.64027949 1477.13253965 -112.38890266 1477.13381577 C-114.76062963 1477.13389325 -117.1323566 1477.1339704 -119.50408356 1477.13404724 C-129.03688441 1477.13435774 -138.56968525 1477.13467641 -148.1024861 1477.135007 C-174.76417348 1477.13592433 -201.42586086 1477.13649472 -228.08754826 1477.13679314 C-229.30213972 1477.13680678 -230.51673118 1477.13682043 -231.76812844 1477.13683449 C-270.51053409 1477.13724418 -309.25293953 1477.13611527 -347.99534512 1477.13394356 C-349.88152687 1477.13383818 -349.88152687 1477.13383818 -351.8058133 1477.13373068 C-372.22381613 1477.13258583 -392.64181895 1477.13136631 -413.05982178 1477.13014051 C-493.66561417 1477.12530647 -574.27140489 1477.1254894 -654.87719727 1477.13037109 C-675.11241118 1477.13159264 -695.34762509 1477.13280386 -715.58283901 1477.13394356 C-716.82939012 1477.13401401 -718.07594122 1477.13408445 -719.3602666 1477.13415704 C-757.93266007 1477.13632184 -796.50505341 1477.13722579 -835.07744694 1477.13679314 C-836.29309431 1477.13677955 -837.50874168 1477.13676597 -838.76122685 1477.13675197 C-865.48271618 1477.13643909 -892.2042055 1477.13580468 -918.92569482 1477.13488263 C-928.49558205 1477.13455359 -938.06546928 1477.13424049 -947.6353565 1477.13393192 C-950.01559305 1477.13385453 -952.39582959 1477.1337758 -954.77606614 1477.13369573 C-992.37250496 1477.13243437 -1029.96894306 1477.13383217 -1067.56538178 1477.13654587 C-1106.68108358 1477.1393382 -1145.79678373 1477.13822268 -1184.91248529 1477.13301457 C-1189.16315853 1477.13246248 -1193.41383177 1477.13192575 -1197.664505 1477.13140106 C-1198.70740383 1477.13127086 -1199.75030265 1477.13114065 -1200.82480446 1477.1310065 C-1216.00816364 1477.12919168 -1231.19152082 1477.13008518 -1246.37487984 1477.13266373 C-1268.77302856 1477.13631487 -1291.17117308 1477.13556338 -1313.56932068 1477.12698364 C-1314.44898736 1477.12665484 -1315.32865404 1477.12632604 -1316.23497728 1477.12598728 C-1391.49247084 1477.09669929 -1466.7454019 1476.63936148 -1542 1476 C-1541.68547764 1474.09207278 -1541.36997979 1472.18430636 -1541.05407524 1470.27660751 C-1540.79069432 1468.68300042 -1540.79069432 1468.68300042 -1540.52199256 1467.05719924 C-1539.85412214 1463.14562444 -1539.07668377 1459.26530183 -1538.25439453 1455.38378906 C-1538.0088116 1454.20876973 -1538.0088116 1454.20876973 -1537.7582674 1453.01001263 C-1537.40417802 1451.31665023 -1537.04905849 1449.62350296 -1536.69299126 1447.93055534 C-1535.70055119 1443.20923449 -1534.71774212 1438.48590284 -1533.7331543 1433.76293945 C-1533.52335088 1432.7575818 -1533.31354746 1431.75222414 -1533.09738636 1430.7164011 C-1525.36126479 1393.63358952 -1517.82729614 1356.51489533 -1510.6875 1319.3125 C-1510.49186714 1318.29336643 -1510.29623428 1317.27423286 -1510.09467316 1316.22421646 C-1501.21271895 1269.91920812 -1492.62718067 1223.55791686 -1483.99118662 1177.2065835 C-1467.32931216 1087.7790243 -1450.49234851 998.39287666 -1427.50390625 891.1015625 C-1427.3157988 890.22980188 -1427.12769135 889.35804127 -1426.93388367 888.45986366 C-1426.55343013 886.69682909 -1426.17295857 884.9337984 -1425.79246902 883.1707716 C-1409.95264754 809.7748761 -1395.00703781 736.29750525 -1384 662 C-1181.38 662 -978.76 662 -770 662 C-771.12500518 673.25005182 -771.12500518 673.25005182 -771.91026306 677.15931702 C-772.08752646 678.05395566 -772.26478987 678.9485943 -772.44742489 679.87034321 C-772.64000661 680.81684333 -772.83258833 681.76334345 -773.03100586 682.73852539 C-773.23666703 683.76913936 -773.44232821 684.79975332 -773.65422153 685.86159801 C-774.33650427 689.27455539 -775.02564215 692.6860899 -775.71484375 696.09765625 C-776.20324504 698.53326439 -776.69123196 700.96895565 -777.17883301 703.40472412 C-778.35323156 709.2655057 -779.53208809 715.12537381 -780.71313512 720.98481786 C-782.07602874 727.74739743 -783.43377751 734.51100681 -784.79140007 741.27464616 C-787.53232759 754.92856388 -790.28074576 768.58096649 -793.03195387 782.23281592 C-793.1643339 782.88970493 -793.29671393 783.54659394 -793.43310547 784.22338867 C-793.5645327 784.87554362 -793.69595994 785.52769856 -793.83136982 786.19961578 C-795.18321864 792.90819262 -796.53305658 799.61717369 -797.8828125 806.32617188 C-800.20368744 817.8610341 -802.52812005 829.39517494 -804.85567093 840.92869186 C-805.43764945 843.81324073 -806.01913834 846.69788797 -806.60055542 849.58255005 C-807.50225286 854.05516968 -808.40597192 858.52737602 -809.31138611 862.99924469 C-809.63866849 864.61706019 -809.96532501 866.23500244 -810.29130554 867.85308075 C-810.7307577 870.03368415 -811.17254398 872.21380128 -811.61499023 874.39379883 C-811.86014877 875.60626785 -812.10530731 876.81873688 -812.3578949 878.06794739 C-813 881 -813 881 -814 884 C-812.78050659 883.91697632 -812.78050659 883.91697632 -811.53637695 883.83227539 C-791.57391219 882.51225003 -771.62775303 881.74628462 -751.625 881.375 C-750.06261093 881.34444016 -750.06261093 881.34444016 -748.46865845 881.31326294 C-735.2829784 881.06216762 -722.09873877 880.97340752 -708.91088867 880.97924805 C-708.11875713 880.97940733 -707.32662559 880.97956661 -706.51049006 880.97973073 C-681.95356173 880.98629107 -657.39674984 881.07908072 -632.83998679 881.16189113 C-627.740436 881.17908365 -622.6408844 881.19601774 -617.54133224 881.21280289 C-597.73097689 881.27803874 -577.92062698 881.34480852 -558.11027908 881.41226794 C-552.33781595 881.43191407 -546.56535241 881.45143943 -540.79288864 881.47089767 C-457.21560917 881.75266152 -373.63850403 882.05710115 -265.0625 882.5625 C-263.8897916 882.56804948 -262.7170832 882.57359897 -261.50883818 882.57931662 C-232.6725409 882.71591049 -203.83626037 882.85582604 -175 883 C-174.86471421 881.76512753 -174.72942842 880.53025507 -174.59004307 879.25796223 C-174.40972785 877.62113277 -174.2293662 875.98430843 -174.04896545 874.3474884 C-173.96013926 873.53555794 -173.87131307 872.72362748 -173.77979517 871.88709307 C-173.14183819 866.1105262 -172.38759411 860.37029534 -171.43359375 854.63671875 C-171.28377548 853.72060822 -171.13395721 852.80449768 -170.979599 851.86062622 C-170.47417534 848.80140231 -169.95778098 845.74423138 -169.4375 842.6875 C-169.24915588 841.57933929 -169.06081177 840.47117859 -168.86676025 839.32943726 C-157.60843177 773.56929004 -143.09396913 708.39534931 -128.84980392 643.23466301 C-114.96730948 579.72348329 -101.7360689 516.07498567 -88.69360352 452.38664246 C-87.98282086 448.91611978 -87.27170137 445.44566623 -86.56054688 441.97521973 C-71.07075395 366.37154618 -55.85569392 290.71447663 -19.75 104.8125 C-19.61320831 104.09652271 -19.47641663 103.38054543 -19.33547974 102.64287186 C-12.80213095 68.44498801 -6.32394147 34.23730628 0 0 Z " fill="#FFFFFF" transform="translate(4622,4099)"/>
<path d="M0 0 C5.06993394 0.58268536 9.64917645 1.71435161 14.46484375 3.421875 C15.18930191 3.67355942 15.91376007 3.92524384 16.66017151 4.18455505 C19.08876863 5.03188594 21.51331167 5.89014209 23.9375 6.75 C25.22043945 7.20217392 25.22043945 7.20217392 26.52929688 7.66348267 C83.67662378 27.82249966 140.34914469 49.71357178 195.9375 73.859375 C196.63069336 74.15886047 197.32388672 74.45834595 198.03808594 74.76690674 C202.88277493 76.88277493 202.88277493 76.88277493 204 78 C203.8728557 86.40929685 202.0444216 94.72292047 200.42163086 102.94018555 C200.15402644 104.3160765 199.88689862 105.69206023 199.62020302 107.06812763 C198.89410728 110.80696272 198.16114127 114.54442097 197.426862 118.28165627 C196.64122694 122.28630252 195.86182596 126.2921627 195.08152771 130.29785156 C193.56729622 138.06532505 192.04678459 145.83155611 190.52371949 153.59730184 C189.28631485 159.90676789 188.05098933 166.21663775 186.81695557 172.52676392 C167.5280948 271.1489396 148.15273789 369.75719708 97.4375 599.9375 C97.22923332 600.83685524 97.02096664 601.73621048 96.80638885 602.66281891 C95.61804273 607.79266004 94.42693256 612.92184682 93.23168755 618.05008507 C92.87131224 619.59671077 92.51143074 621.14345163 92.15208626 622.69031715 C91.65974759 624.80821057 91.16507526 626.9255449 90.66967773 629.04272461 C90.39389389 630.2245079 90.11811005 631.4062912 89.83396912 632.62388611 C88.97213595 636.11280059 88.00783292 639.55088897 87 643 C78.44298053 641.02352239 70.20399838 638.51960763 61.9375 635.5625 C61.29773224 635.33446686 60.65796448 635.10643372 59.99880981 634.87149048 C22.44838804 621.44574543 -14.4183409 606.06532261 -51.31416321 590.95973206 C-62.44795692 586.40307866 -73.59730583 581.88515677 -84.75 577.375 C-86.47859956 576.67554342 -88.20719666 575.97608076 -89.93579102 575.27661133 C-97.61779522 572.16920046 -105.30146037 569.06628505 -113 566 C-113.14127102 560.15221079 -112.65382944 554.73524383 -111.671875 548.9765625 C-111.52766113 548.10520157 -111.38344727 547.23384064 -111.23486328 546.33607483 C-110.74934401 543.43069636 -110.25127273 540.52770041 -109.75 537.625 C-109.57327759 536.59573395 -109.39655518 535.5664679 -109.21447754 534.50601196 C-101.66368039 490.75827906 -91.82022862 447.46931157 -82.14596558 404.15460205 C-66.31509821 333.26858802 -51.33271347 262.20368684 -37 191 C-36.81244141 190.06834267 -36.62488281 189.13668533 -36.43164062 188.17679596 C-25.95762174 136.13110208 -15.8279164 84.02895867 -6.16601562 31.82617188 C-5.90637874 30.42396708 -5.90637874 30.42396708 -5.64149666 28.99343491 C-4.83221136 24.62161165 -4.02448288 20.24951355 -3.22018433 15.87677002 C-2.93765934 14.34590345 -2.65511843 12.81503982 -2.37255859 11.28417969 C-2.24699333 10.59822472 -2.12142807 9.91226974 -1.9920578 9.20552826 C-1.41953305 6.10948059 -0.81569733 3.04199275 0 0 Z " fill="#2C1B67" transform="translate(4223,3943)"/>
</svg>
