<svg width="1200" height="1200" xmlns="http://www.w3.org/2000/svg">
  <defs>
    <pattern id="topography-light" x="0" y="0" width="1200" height="1200" patternUnits="userSpaceOnUse">
      <!-- Thin, smoothly curving contour lines - matching the photo style -->
      <!-- Horizontal flowing curves with varying spacing -->
      <path d="M0,60 Q200,40 400,60 Q600,80 800,55 Q1000,30 1200,60" stroke="#000000" stroke-width="0.8" fill="none" opacity="0.3"/>
      <path d="M0,100 Q250,80 500,100 Q750,120 1000,90 Q1150,70 1200,100" stroke="#000000" stroke-width="0.8" fill="none" opacity="0.3"/>
      <path d="M0,140 Q300,120 600,140 Q900,160 1200,130" stroke="#000000" stroke-width="0.8" fill="none" opacity="0.28"/>
      <path d="M0,180 Q350,160 700,180 Q1050,200 1200,175" stroke="#000000" stroke-width="0.8" fill="none" opacity="0.28"/>
      <path d="M0,220 Q400,200 800,220 Q1200,240 1200,220" stroke="#000000" stroke-width="0.8" fill="none" opacity="0.26"/>
      <path d="M0,260 Q450,240 900,260 Q1200,280 1200,265" stroke="#000000" stroke-width="0.8" fill="none" opacity="0.26"/>
      <path d="M0,300 Q500,280 1000,300 Q1200,320 1200,310" stroke="#000000" stroke-width="0.8" fill="none" opacity="0.24"/>
      <path d="M0,340 Q550,320 1100,340 Q1200,360 1200,355" stroke="#000000" stroke-width="0.8" fill="none" opacity="0.24"/>
      <path d="M0,380 Q600,360 1200,380" stroke="#000000" stroke-width="0.8" fill="none" opacity="0.22"/>
      <path d="M0,420 Q650,400 1200,420" stroke="#000000" stroke-width="0.8" fill="none" opacity="0.22"/>
      <path d="M0,460 Q700,440 1200,460" stroke="#000000" stroke-width="0.8" fill="none" opacity="0.2"/>
      <path d="M0,500 Q750,480 1200,500" stroke="#000000" stroke-width="0.8" fill="none" opacity="0.2"/>
      <path d="M0,540 Q800,520 1200,540" stroke="#000000" stroke-width="0.8" fill="none" opacity="0.18"/>
      <path d="M0,580 Q850,560 1200,580" stroke="#000000" stroke-width="0.8" fill="none" opacity="0.18"/>
      <path d="M0,620 Q900,600 1200,620" stroke="#000000" stroke-width="0.8" fill="none" opacity="0.16"/>
      <path d="M0,660 Q950,640 1200,660" stroke="#000000" stroke-width="0.8" fill="none" opacity="0.16"/>
      <path d="M0,700 Q1000,680 1200,700" stroke="#000000" stroke-width="0.8" fill="none" opacity="0.14"/>
      <path d="M0,740 Q1050,720 1200,740" stroke="#000000" stroke-width="0.8" fill="none" opacity="0.14"/>
      <path d="M0,780 Q1100,760 1200,780" stroke="#000000" stroke-width="0.8" fill="none" opacity="0.12"/>
      <path d="M0,820 Q1150,800 1200,820" stroke="#000000" stroke-width="0.8" fill="none" opacity="0.12"/>
      <path d="M0,860 Q1200,840 1200,860" stroke="#000000" stroke-width="0.8" fill="none" opacity="0.1"/>
      <path d="M0,900 Q1200,880 1200,900" stroke="#000000" stroke-width="0.8" fill="none" opacity="0.1"/>
      <path d="M0,940 Q1200,920 1200,940" stroke="#000000" stroke-width="0.8" fill="none" opacity="0.08"/>
      <path d="M0,980 Q1200,960 1200,980" stroke="#000000" stroke-width="0.8" fill="none" opacity="0.08"/>
      <path d="M0,1020 Q1200,1000 1200,1020" stroke="#000000" stroke-width="0.8" fill="none" opacity="0.06"/>
      <path d="M0,1060 Q1200,1040 1200,1060" stroke="#000000" stroke-width="0.8" fill="none" opacity="0.06"/>
      <path d="M0,1100 Q1200,1080 1200,1100" stroke="#000000" stroke-width="0.8" fill="none" opacity="0.04"/>
      <path d="M0,1140 Q1200,1120 1200,1140" stroke="#000000" stroke-width="0.8" fill="none" opacity="0.04"/>
      
      <!-- Vertical flowing curves -->
      <path d="M100,0 Q80,200 100,400 Q120,600 100,800 Q80,1000 100,1200" stroke="#000000" stroke-width="0.8" fill="none" opacity="0.25"/>
      <path d="M250,0 Q230,250 250,500 Q270,750 250,1000 Q230,1150 250,1200" stroke="#000000" stroke-width="0.8" fill="none" opacity="0.23"/>
      <path d="M400,0 Q380,300 400,600 Q420,900 400,1200" stroke="#000000" stroke-width="0.8" fill="none" opacity="0.21"/>
      <path d="M550,0 Q530,350 550,700 Q570,1050 550,1200" stroke="#000000" stroke-width="0.8" fill="none" opacity="0.19"/>
      <path d="M700,0 Q680,400 700,800 Q720,1200 700,1200" stroke="#000000" stroke-width="0.8" fill="none" opacity="0.17"/>
      <path d="M850,0 Q830,450 850,900 Q870,1350 850,1200" stroke="#000000" stroke-width="0.8" fill="none" opacity="0.15"/>
      <path d="M1000,0 Q980,500 1000,1000 Q1020,1500 1000,1200" stroke="#000000" stroke-width="0.8" fill="none" opacity="0.13"/>
      <path d="M1150,0 Q1130,550 1150,1100 Q1170,1650 1150,1200" stroke="#000000" stroke-width="0.8" fill="none" opacity="0.11"/>
      
      <!-- Closed loop contours - organic irregular shapes (hills/valleys) -->
      <!-- Hill 1 - small irregular closed loop -->
      <path d="M180,180 C150,160 130,170 120,190 C110,210 125,230 150,240 C175,250 200,245 210,220 C220,195 210,180 180,180 Z" stroke="#000000" stroke-width="0.8" fill="none" opacity="0.35"/>
      <path d="M180,180 C165,170 150,175 145,190 C140,205 150,220 165,225 C180,230 190,215 185,200 C180,185 175,180 180,180 Z" stroke="#000000" stroke-width="0.8" fill="none" opacity="0.35"/>
      <path d="M180,180 C172,175 165,180 162,195 C159,210 168,220 175,218 C182,216 182,205 179,195 C176,185 175,180 180,180 Z" stroke="#000000" stroke-width="0.8" fill="none" opacity="0.35"/>
      
      <!-- Hill 2 - medium irregular closed loop -->
      <path d="M750,250 C700,230 650,240 600,260 C550,280 560,310 600,330 C640,350 700,360 750,355 C800,350 820,320 815,280 C810,240 790,250 750,250 Z" stroke="#000000" stroke-width="0.8" fill="none" opacity="0.33"/>
      <path d="M750,250 C720,240 680,245 640,260 C600,275 610,300 640,315 C670,330 720,335 750,330 C780,325 790,300 785,275 C780,250 770,245 750,250 Z" stroke="#000000" stroke-width="0.8" fill="none" opacity="0.33"/>
      <path d="M750,250 C730,245 710,250 695,270 C680,290 690,310 710,320 C730,330 750,325 755,305 C760,285 750,265 750,250 Z" stroke="#000000" stroke-width="0.8" fill="none" opacity="0.33"/>
      <path d="M750,250 C740,248 725,252 720,270 C715,288 725,300 735,298 C745,296 745,280 740,265 C735,250 745,248 750,250 Z" stroke="#000000" stroke-width="0.8" fill="none" opacity="0.33"/>
      
      <!-- Hill 3 - large irregular closed loop -->
      <path d="M500,550 C450,530 400,540 350,560 C300,580 310,610 350,630 C390,650 450,660 500,655 C550,650 570,620 565,580 C560,540 540,550 500,550 Z" stroke="#000000" stroke-width="0.8" fill="none" opacity="0.31"/>
      <path d="M500,550 C470,540 430,545 390,560 C350,575 360,600 390,615 C420,630 470,635 500,630 C530,625 540,600 535,575 C530,550 520,545 500,550 Z" stroke="#000000" stroke-width="0.8" fill="none" opacity="0.31"/>
      <path d="M500,550 C480,545 460,550 445,570 C430,590 440,610 460,620 C480,630 500,625 505,605 C510,585 500,565 500,550 Z" stroke="#000000" stroke-width="0.8" fill="none" opacity="0.31"/>
      <path d="M500,550 C490,548 475,552 470,570 C465,588 475,600 485,598 C495,596 495,580 490,565 C485,550 495,548 500,550 Z" stroke="#000000" stroke-width="0.8" fill="none" opacity="0.31"/>
      <path d="M500,550 C495,549 485,551 483,560 C481,569 486,575 490,574 C494,573 494,565 492,558 C490,551 492,549 500,550 Z" stroke="#000000" stroke-width="0.8" fill="none" opacity="0.31"/>
      
      <!-- Hill 4 - medium irregular closed loop -->
      <path d="M300,800 C270,780 250,790 230,810 C210,830 220,850 250,870 C280,890 330,895 350,880 C370,865 365,835 340,815 C315,795 300,800 300,800 Z" stroke="#000000" stroke-width="0.8" fill="none" opacity="0.29"/>
      <path d="M300,800 C280,790 260,795 245,810 C230,825 235,845 255,860 C275,875 315,875 330,860 C345,845 340,825 320,810 C300,795 300,800 300,800 Z" stroke="#000000" stroke-width="0.8" fill="none" opacity="0.29"/>
      <path d="M300,800 C290,795 275,800 265,820 C255,840 270,855 285,850 C300,845 305,825 295,810 C285,795 290,795 300,800 Z" stroke="#000000" stroke-width="0.8" fill="none" opacity="0.29"/>
      
      <!-- Hill 5 - large irregular closed loop -->
      <path d="M850,700 C800,680 750,690 700,710 C650,730 660,760 700,780 C740,800 800,810 850,805 C900,800 920,770 915,730 C910,690 890,700 850,700 Z" stroke="#000000" stroke-width="0.8" fill="none" opacity="0.27"/>
      <path d="M850,700 C820,690 780,695 740,710 C700,725 710,750 740,765 C770,780 820,785 850,780 C880,775 890,750 885,725 C880,700 870,695 850,700 Z" stroke="#000000" stroke-width="0.8" fill="none" opacity="0.27"/>
      <path d="M850,700 C830,695 810,700 795,720 C780,740 790,760 810,770 C830,780 850,775 855,755 C860,735 850,715 850,700 Z" stroke="#000000" stroke-width="0.8" fill="none" opacity="0.27"/>
      
      <!-- Hill 6 - small irregular closed loop -->
      <path d="M150,1000 C120,980 100,990 80,1010 C60,1030 70,1050 100,1070 C130,1090 180,1095 200,1080 C220,1065 215,1035 190,1015 C165,995 150,1000 150,1000 Z" stroke="#000000" stroke-width="0.8" fill="none" opacity="0.25"/>
      <path d="M150,1000 C130,990 110,995 95,1010 C80,1025 85,1045 105,1060 C125,1075 165,1075 180,1060 C195,1045 190,1025 170,1010 C150,995 150,1000 150,1000 Z" stroke="#000000" stroke-width="0.8" fill="none" opacity="0.25"/>
      <path d="M150,1000 C140,995 125,1000 115,1020 C105,1040 120,1055 135,1050 C150,1045 155,1025 145,1010 C135,995 140,995 150,1000 Z" stroke="#000000" stroke-width="0.8" fill="none" opacity="0.25"/>
      
      <!-- More organic meandering paths -->
      <path d="M50,320 Q150,300 300,315 Q500,330 700,310 Q900,290 1100,320 Q1150,330 1200,320" stroke="#000000" stroke-width="0.7" fill="none" opacity="0.22"/>
      <path d="M0,400 Q100,380 250,395 Q450,410 650,390 Q850,370 1050,400 Q1100,410 1200,400" stroke="#000000" stroke-width="0.7" fill="none" opacity="0.2"/>
      <path d="M50,480 Q180,460 380,475 Q600,490 800,470 Q1000,450 1150,480 Q1200,490 1200,480" stroke="#000000" stroke-width="0.7" fill="none" opacity="0.18"/>
      <path d="M0,560 Q120,540 320,555 Q550,570 750,550 Q950,530 1100,560 Q1150,570 1200,560" stroke="#000000" stroke-width="0.7" fill="none" opacity="0.16"/>
      <path d="M50,640 Q200,620 450,635 Q700,650 900,630 Q1100,610 1200,640" stroke="#000000" stroke-width="0.7" fill="none" opacity="0.14"/>
      <path d="M0,720 Q150,700 400,715 Q650,730 850,710 Q1050,690 1200,720" stroke="#000000" stroke-width="0.7" fill="none" opacity="0.12"/>
      <path d="M50,800 Q250,780 550,795 Q850,810 1100,790 Q1200,800 1200,800" stroke="#000000" stroke-width="0.7" fill="none" opacity="0.1"/>
      <path d="M0,880 Q180,860 480,875 Q780,890 980,870 Q1180,850 1200,880" stroke="#000000" stroke-width="0.7" fill="none" opacity="0.08"/>
      <path d="M50,960 Q300,940 650,955 Q1000,970 1200,950" stroke="#000000" stroke-width="0.7" fill="none" opacity="0.06"/>
      <path d="M0,1040 Q220,1020 570,1035 Q920,1050 1200,1030" stroke="#000000" stroke-width="0.7" fill="none" opacity="0.04"/>
    </pattern>
  </defs>
  <rect width="1200" height="1200" fill="url(#topography-light)"/>
</svg>
